<svg xmlns="http://www.w3.org/2000/svg" viewBox="0 0 1080 1080" width="1080" height="1080">
  <defs>
    <style>
      @import url('https://fonts.googleapis.com/css2?family=Orbitron:wght@700;900&amp;family=Share+Tech+Mono&amp;display=swap');
    </style>

    <!-- Cyan glow filter -->
    <filter id="cyanGlow" x="-60%" y="-60%" width="220%" height="220%">
      <feGaussianBlur in="SourceGraphic" stdDeviation="6" result="blur"/>
      <feColorMatrix in="blur" type="matrix"
        values="0 0 0 0 0
                0 0.898 0 0 1
                0 1 0 0 1
                0 0 0 0.9 0" result="coloredBlur"/>
      <feMerge>
        <feMergeNode in="coloredBlur"/>
        <feMergeNode in="SourceGraphic"/>
      </feMerge>
    </filter>

    <!-- Strong glow for title -->
    <filter id="titleGlow" x="-20%" y="-60%" width="140%" height="220%">
      <feGaussianBlur in="SourceGraphic" stdDeviation="10" result="blur"/>
      <feColorMatrix in="blur" type="matrix"
        values="0 0 0 0 0
                0 0.898 0 0 1
                0 1 0 0 1
                0 0 0 1.2 0" result="coloredBlur"/>
      <feMerge>
        <feMergeNode in="coloredBlur"/>
        <feMergeNode in="coloredBlur"/>
        <feMergeNode in="SourceGraphic"/>
      </feMerge>
    </filter>

    <!-- Gold glow -->
    <filter id="goldGlow" x="-60%" y="-60%" width="220%" height="220%">
      <feGaussianBlur in="SourceGraphic" stdDeviation="6" result="blur"/>
      <feColorMatrix in="blur" type="matrix"
        values="1 0 0 0 0
                0 0.7 0 0 0
                0 0 0 0 0
                0 0 0 0.9 0" result="coloredBlur"/>
      <feMerge>
        <feMergeNode in="coloredBlur"/>
        <feMergeNode in="SourceGraphic"/>
      </feMerge>
    </filter>

    <!-- Torpedo gradient -->
    <linearGradient id="torpGrad" x1="0%" y1="0%" x2="100%" y2="0%">
      <stop offset="0%"   stop-color="#003B4D"/>
      <stop offset="20%"  stop-color="#00B8D9"/>
      <stop offset="50%"  stop-color="#00E5FF"/>
      <stop offset="80%"  stop-color="#00B8D9"/>
      <stop offset="100%" stop-color="#002233"/>
    </linearGradient>

    <!-- Torpedo shine -->
    <linearGradient id="torpShine" x1="0%" y1="0%" x2="0%" y2="100%">
      <stop offset="0%"   stop-color="rgba(255,255,255,0.35)"/>
      <stop offset="45%"  stop-color="rgba(255,255,255,0.05)"/>
      <stop offset="100%" stop-color="rgba(0,0,0,0.2)"/>
    </linearGradient>

    <!-- Center radial glow -->
    <radialGradient id="centerGlow" cx="50%" cy="44.4%" r="40%">
      <stop offset="0%"   stop-color="#00E5FF" stop-opacity="0.18"/>
      <stop offset="50%"  stop-color="#00E5FF" stop-opacity="0.06"/>
      <stop offset="100%" stop-color="#06080E" stop-opacity="0"/>
    </radialGradient>

    <!-- Vignette -->
    <radialGradient id="vignette" cx="50%" cy="50%" r="70%">
      <stop offset="40%" stop-color="rgba(6,8,14,0)"  stop-opacity="0"/>
      <stop offset="100%" stop-color="#010204" stop-opacity="0.85"/>
    </radialGradient>

    <!-- Dot-grid pattern -->
    <pattern id="dots" x="0" y="0" width="54" height="54" patternUnits="userSpaceOnUse">
      <circle cx="27" cy="27" r="1.2" fill="#00E5FF" opacity="0.07"/>
    </pattern>

    <!-- Scan-line pattern -->
    <pattern id="scanlines" x="0" y="0" width="1080" height="4" patternUnits="userSpaceOnUse">
      <rect width="1080" height="1" y="0" fill="rgba(0,229,255,0.022)"/>
    </pattern>
  </defs>

  <!-- ── LAYER 0: base fill ── -->
  <rect width="1080" height="1080" fill="#06080E"/>

  <!-- ── LAYER 1: dot grid texture ── -->
  <rect width="1080" height="1080" fill="url(#dots)"/>

  <!-- ── LAYER 2: scanlines ── -->
  <rect width="1080" height="1080" fill="url(#scanlines)"/>

  <!-- ── LAYER 3: center ambient glow ── -->
  <rect width="1080" height="1080" fill="url(#centerGlow)"/>


  <!-- ═══════════════════════════════════════════
       CORNER BRACKETS (HUD frame)
  ═══════════════════════════════════════════ -->
  <!-- Top-left -->
  <path d="M55,55 L55,175 M55,55 L175,55" stroke="#00E5FF" stroke-width="5" fill="none" stroke-linecap="square" filter="url(#cyanGlow)" opacity="0.9"/>
  <path d="M65,65 L65,115 M65,65 L115,65" stroke="#00E5FF" stroke-width="1.5" fill="none" opacity="0.35"/>

  <!-- Top-right -->
  <path d="M1025,55 L1025,175 M1025,55 L905,55" stroke="#00E5FF" stroke-width="5" fill="none" stroke-linecap="square" filter="url(#cyanGlow)" opacity="0.9"/>
  <path d="M1015,65 L1015,115 M1015,65 L965,65" stroke="#00E5FF" stroke-width="1.5" fill="none" opacity="0.35"/>

  <!-- Bottom-left -->
  <path d="M55,1025 L55,905 M55,1025 L175,1025" stroke="#00E5FF" stroke-width="5" fill="none" stroke-linecap="square" filter="url(#cyanGlow)" opacity="0.9"/>
  <path d="M65,1015 L65,965 M65,1015 L115,1015" stroke="#00E5FF" stroke-width="1.5" fill="none" opacity="0.35"/>

  <!-- Bottom-right -->
  <path d="M1025,1025 L1025,905 M1025,1025 L905,1025" stroke="#00E5FF" stroke-width="5" fill="none" stroke-linecap="square" filter="url(#cyanGlow)" opacity="0.9"/>
  <path d="M1015,1015 L1015,965 M1015,1015 L965,1015" stroke="#00E5FF" stroke-width="1.5" fill="none" opacity="0.35"/>


  <!-- ═══════════════════════════════════════════
       TARGETING RETICLE  (centred at 540, 460)
  ═══════════════════════════════════════════ -->
  <!-- Outermost thin orbit ring -->
  <circle cx="540" cy="460" r="310" stroke="#00E5FF" stroke-width="1" fill="none" opacity="0.18" stroke-dasharray="4 8"/>

  <!-- Outer reticle circle -->
  <circle cx="540" cy="460" r="268" stroke="#00E5FF" stroke-width="2.5" fill="none" opacity="0.6" filter="url(#cyanGlow)"/>

  <!-- Mid ring -->
  <circle cx="540" cy="460" r="200" stroke="#00E5FF" stroke-width="1.2" fill="none" opacity="0.3"/>

  <!-- Inner ring -->
  <circle cx="540" cy="460" r="140" stroke="#00E5FF" stroke-width="2" fill="none" opacity="0.65" filter="url(#cyanGlow)"/>

  <!-- Small inner ring -->
  <circle cx="540" cy="460" r="72" stroke="#00E5FF" stroke-width="1.5" fill="none" opacity="0.5"/>

  <!-- Gold bullseye ring -->
  <circle cx="540" cy="460" r="26" stroke="#FFB300" stroke-width="3" fill="none" opacity="0.95" filter="url(#goldGlow)"/>

  <!-- Centre dot -->
  <circle cx="540" cy="460" r="7" fill="#FFB300" filter="url(#goldGlow)"/>


  <!-- ── Crosshair lines (gaps where torpedo passes through) ── -->
  <!-- Horizontal left -->
  <line x1="242" y1="460" x2="420" y2="460" stroke="#00E5FF" stroke-width="2" opacity="0.75" filter="url(#cyanGlow)"/>
  <!-- Horizontal right -->
  <line x1="660" y1="460" x2="838" y2="460" stroke="#00E5FF" stroke-width="2" opacity="0.75" filter="url(#cyanGlow)"/>
  <!-- Vertical top -->
  <line x1="540" y1="192" x2="540" y2="400" stroke="#00E5FF" stroke-width="2" opacity="0.75" filter="url(#cyanGlow)"/>
  <!-- Vertical bottom -->
  <line x1="540" y1="520" x2="540" y2="728" stroke="#00E5FF" stroke-width="2" opacity="0.75" filter="url(#cyanGlow)"/>


  <!-- ── Tick marks at 12 positions on outer ring ── -->
  <!-- Using trig: (540 + 268·cosθ, 460 + 268·sinθ)  outer → inner tick -->
  <!-- 0° = right (east) -->
  <line x1="808" y1="460" x2="790" y2="460" stroke="#00E5FF" stroke-width="2.5" opacity="0.8"/>
  <!-- 30° -->
  <line x1="772" y1="594" x2="758" y2="581" stroke="#00E5FF" stroke-width="1.5" opacity="0.5"/>
  <!-- 60° -->
  <line x1="674" y1="692" x2="674" y2="674" stroke="#00E5FF" stroke-width="2" opacity="0.7"/>
  <!-- 90° = bottom -->
  <line x1="540" y1="728" x2="540" y2="710" stroke="#00E5FF" stroke-width="2.5" opacity="0.8"/>
  <!-- 120° -->
  <line x1="406" y1="692" x2="406" y2="674" stroke="#00E5FF" stroke-width="2" opacity="0.7"/>
  <!-- 150° -->
  <line x1="308" y1="594" x2="322" y2="581" stroke="#00E5FF" stroke-width="1.5" opacity="0.5"/>
  <!-- 180° = left (west) -->
  <line x1="272" y1="460" x2="290" y2="460" stroke="#00E5FF" stroke-width="2.5" opacity="0.8"/>
  <!-- 210° -->
  <line x1="308" y1="326" x2="322" y2="339" stroke="#00E5FF" stroke-width="1.5" opacity="0.5"/>
  <!-- 240° -->
  <line x1="406" y1="228" x2="406" y2="246" stroke="#00E5FF" stroke-width="2" opacity="0.7"/>
  <!-- 270° = top -->
  <line x1="540" y1="192" x2="540" y2="210" stroke="#00E5FF" stroke-width="2.5" opacity="0.8"/>
  <!-- 300° -->
  <line x1="674" y1="228" x2="674" y2="246" stroke="#00E5FF" stroke-width="2" opacity="0.7"/>
  <!-- 330° -->
  <line x1="772" y1="326" x2="758" y2="339" stroke="#00E5FF" stroke-width="1.5" opacity="0.5"/>

  <!-- Degree labels -->
  <text x="540" y="178" font-family="'Share Tech Mono',monospace" font-size="20" fill="#00E5FF" text-anchor="middle" opacity="0.55">000°</text>
  <text x="852" y="467" font-family="'Share Tech Mono',monospace" font-size="20" fill="#00E5FF" text-anchor="start"  opacity="0.55">090°</text>
  <text x="540" y="762" font-family="'Share Tech Mono',monospace" font-size="20" fill="#00E5FF" text-anchor="middle" opacity="0.55">180°</text>
  <text x="228" y="467" font-family="'Share Tech Mono',monospace" font-size="20" fill="#00E5FF" text-anchor="end"    opacity="0.55">270°</text>


  <!-- ═══════════════════════════════════════════
       TORPEDO
       Body: x 310→745, cy 460, half-h 22
  ═══════════════════════════════════════════ -->
  <!-- Wake bubble trail -->
  <path d="M272,456 Q200,448 128,460 Q200,472 272,464" stroke="#00E5FF" stroke-width="1.5" fill="none" opacity="0.22" stroke-linecap="round"/>
  <path d="M280,458 Q230,452 170,460 Q230,468 280,462" stroke="#00E5FF" stroke-width="1" fill="none" opacity="0.15" stroke-linecap="round"/>

  <!-- Propeller ring -->
  <ellipse cx="322" cy="460" rx="5" ry="18" stroke="#00E5FF" stroke-width="2" fill="none" opacity="0.7" filter="url(#cyanGlow)"/>
  <ellipse cx="322" cy="460" rx="3" ry="11" stroke="#00E5FF" stroke-width="1.2" fill="none" opacity="0.45"/>
  <!-- Propeller shaft -->
  <line x1="310" y1="460" x2="348" y2="460" stroke="#00E5FF" stroke-width="1.5" opacity="0.6"/>

  <!-- Torpedo tail fins -->
  <path d="M350,460 L326,436 L322,442 L350,460 Z" fill="#0099BB" opacity="0.9"/>
  <path d="M350,460 L326,484 L322,478 L350,460 Z" fill="#0099BB" opacity="0.9"/>
  <!-- Fin top edge glow -->
  <line x1="322" y1="436" x2="350" y2="460" stroke="#00E5FF" stroke-width="1" opacity="0.5"/>
  <line x1="322" y1="484" x2="350" y2="460" stroke="#00E5FF" stroke-width="1" opacity="0.5"/>

  <!-- Main torpedo body -->
  <rect x="348" y="438" width="390" height="44" rx="6" fill="url(#torpGrad)" filter="url(#cyanGlow)"/>
  <!-- Shine overlay -->
  <rect x="348" y="438" width="390" height="44" rx="6" fill="url(#torpShine)"/>
  <!-- Body seam lines -->
  <line x1="430" y1="438" x2="430" y2="482" stroke="rgba(0,229,255,0.2)" stroke-width="1"/>
  <line x1="560" y1="438" x2="560" y2="482" stroke="rgba(0,229,255,0.2)" stroke-width="1"/>
  <line x1="650" y1="438" x2="650" y2="482" stroke="rgba(0,229,255,0.2)" stroke-width="1"/>
  <!-- Top highlight stripe -->
  <rect x="348" y="441" width="390" height="6" rx="3" fill="rgba(255,255,255,0.18)"/>

  <!-- Nose cone -->
  <path d="M738,438 Q758,440 776,452 Q784,456 786,460 Q784,464 776,468 Q758,480 738,482 Z"
        fill="#00E5FF" opacity="0.92" filter="url(#cyanGlow)"/>
  <!-- Nose tip highlight -->
  <path d="M776,452 Q784,456 786,460 Q784,464 776,468 Q780,460 776,452 Z" fill="rgba(255,255,255,0.4)"/>

  <!-- Warhead band -->
  <rect x="348" y="438" width="18" height="44" fill="#FFB300" opacity="0.85" rx="1" filter="url(#goldGlow)"/>


  <!-- ═══════════════════════════════════════════
       TACTICAL HUD READOUTS
  ═══════════════════════════════════════════ -->
  <!-- Top-left -->
  <text x="78" y="210" font-family="'Share Tech Mono',monospace" font-size="18" fill="#00E5FF" opacity="0.55">TGT ▸ LOCKED</text>
  <text x="78" y="236" font-family="'Share Tech Mono',monospace" font-size="18" fill="#FFB300" opacity="0.65">◆ ARMED</text>

  <!-- Top-right -->
  <text x="1002" y="210" font-family="'Share Tech Mono',monospace" font-size="18" fill="#00E5FF" opacity="0.55" text-anchor="end">RNG  4.2NM</text>
  <text x="1002" y="236" font-family="'Share Tech Mono',monospace" font-size="18" fill="#00E5FF" opacity="0.55" text-anchor="end">BRG  095°</text>

  <!-- Bottom-left -->
  <text x="78" y="848" font-family="'Share Tech Mono',monospace" font-size="17" fill="#00E5FF" opacity="0.42">SYS ▸ ONLINE</text>

  <!-- Bottom-right -->
  <text x="1002" y="848" font-family="'Share Tech Mono',monospace" font-size="17" fill="#00E5FF" opacity="0.42" text-anchor="end">GRID  10×10</text>

  <!-- CLASSIFIED stamp -->
  <rect x="432" y="90" width="216" height="40" fill="none" stroke="#FFB300" stroke-width="1.5" opacity="0.45"/>
  <text x="540" y="117" font-family="'Share Tech Mono',monospace" font-size="17" fill="#FFB300" text-anchor="middle" letter-spacing="5" opacity="0.6">CLASSIFIED</text>


  <!-- ═══════════════════════════════════════════
       DIVIDER + TITLE BLOCK
  ═══════════════════════════════════════════ -->
  <!-- Horizontal rule with centre diamond -->
  <line x1="78"  y1="870" x2="490" y2="870" stroke="#00E5FF" stroke-width="1.5" opacity="0.5"/>
  <line x1="590" y1="870" x2="1002" y2="870" stroke="#00E5FF" stroke-width="1.5" opacity="0.5"/>
  <polygon points="540,860 551,870 540,880 529,870" fill="#FFB300" filter="url(#goldGlow)" opacity="0.9"/>

  <!-- Gold accent bar under DEEP STRIKE -->
  <rect x="160" y="958" width="760" height="3" fill="#FFB300" opacity="0.6"/>

  <!-- DEEP STRIKE — ghost outline layer for depth -->
  <text x="540" y="950"
    font-family="'Orbitron','Share Tech Mono',monospace"
    font-size="112" font-weight="900"
    fill="none" stroke="#00E5FF" stroke-width="1"
    text-anchor="middle" letter-spacing="10"
    opacity="0.15">DEEP STRIKE</text>

  <!-- DEEP STRIKE — filled glowing text -->
  <text x="540" y="950"
    font-family="'Orbitron','Share Tech Mono',monospace"
    font-size="112" font-weight="900"
    fill="#00E5FF"
    text-anchor="middle" letter-spacing="10"
    filter="url(#titleGlow)">DEEP STRIKE</text>

  <!-- Subtitle -->
  <text x="540" y="1000"
    font-family="'Share Tech Mono',monospace"
    font-size="25" fill="#FFB300"
    text-anchor="middle" letter-spacing="9"
    opacity="0.85">NAVAL COMBAT COMMAND</text>


  <!-- ── LAYER FINAL: vignette ── -->
  <rect width="1080" height="1080" fill="url(#vignette)"/>

</svg>
